<svg xmlns="http://www.w3.org/2000/svg" viewBox="0 0 474.93 97.21"><defs></defs><path class="cls-1" d="M587.7 244.91q-6.9 0-11.24 3a31.8 31.8 0 0 0-5.86 5.14.54.54 0 0 1-1-.36v-3.56a3.48 3.48 0 0 0-3.47-3.19h-12.71a3.49 3.49 0 0 0-3.49 3.49v58.46a2.88 2.88 0 0 0 2.88 2.88h14.07a2.9 2.9 0 0 0 2.9-2.91v-29.04c0-5.14 1.53-9 4.34-11.92 6.64-6.84 15.82-5 18.25-4.4a2.81 2.81 0 0 0 3.46-2.75v-11.61a2.73 2.73 0 0 0-2.08-2.64c-.52-.13-1-.23-1.57-.31a31.68 31.68 0 0 0-4.48-.28zM292.83 281a17.83 17.83 0 0 1-.83 5.38 12.81 12.81 0 0 1-2.48 4.54 12.62 12.62 0 0 1-4 3.11 11.85 11.85 0 0 1-5.37 1.17q-5.25 0-7.93-3.17c-1.79-2.12-2.69-5-2.69-8.69v-34.59a2.77 2.77 0 0 0-2.77-2.77H253.5a2.79 2.79 0 0 0-2.79 2.79v37.5q0 13 6.48 19.57c4.32 4.41 9.17 6.62 16.62 6.62a25.45 25.45 0 0 0 10.82-2.41 26.24 26.24 0 0 0 6.31-4.07 1.37 1.37 0 0 1 2.27.92l.1 1.28a2.86 2.86 0 0 0 2.84 2.63h12.53a2.84 2.84 0 0 0 2.83-2.84v-59.14a2.85 2.85 0 0 0-2.85-2.85h-13a2.86 2.86 0 0 0-2.86 2.86zM239.74 218a14.34 14.34 0 0 0-14.34 14.3V283.06q0 6.1-3.12 9.29a11.29 11.29 0 0 1-8.47 3.19 17 17 0 0 1-7.57-1.72 17.81 17.81 0 0 1-3.65-2.45 4.73 4.73 0 0 0-6.6.38l-6.24 6.94a3.27 3.27 0 0 0 .2 4.55c6.35 6.13 14.76 9.23 25.27 9.23a37.1 37.1 0 0 0 11.13-1.66 26.68 26.68 0 0 0 9.36-5.09 24.41 24.41 0 0 0 6.49-8.78 29.85 29.85 0 0 0 2.39-11.85v-62.27a4.86 4.86 0 0 0-4.85-4.82zM663.46 307.25l-24-37.25 20.41-21a1.64 1.64 0 0 0-1.18-2.79h-16.12a5.77 5.77 0 0 0-4.16 1.76l-18.28 19 .18-30.47v-4.24a15.2 15.2 0 0 0-14.89-14.34 4.86 4.86 0 0 0-4.86 4.86V308a2.86 2.86 0 0 0 2.85 2.85h14.16a2.85 2.85 0 0 0 2.83-2.85v-18.56l5.79-5.93 15.51 25.59a3.54 3.54 0 0 0 3 1.71h16.8a2.31 2.31 0 0 0 1.96-3.56zM373.32 261.25a3.52 3.52 0 0 1-2.32-.56 3 3 0 0 1-.64-2.25v-9.79A2.68 2.68 0 0 1 373 246h7.46v-15c0-2 1-3 3.1-3h12.73a3.09 3.09 0 0 1 3.09 3.1V246h10.7a2.59 2.59 0 0 1 2.59 2.59v9.88a3 3 0 0 1-.64 2.18 3.27 3.27 0 0 1-2.32.63h-10.3v25.48q0 4.38 2 6.27t6.48 1.91h5.85a2.74 2.74 0 0 1 2.74 2.73v12.23a2.57 2.57 0 0 1-2.61 2.58h-8.94c-7.42 0-12.88-.91-18.29-5.92-4.16-3.86-6.13-9.58-6.13-16.9v-28.41zM517.94 244.91a63.84 63.84 0 0 0-18.5 2.88 4.48 4.48 0 0 0-3.12 4.1l-.37 7.76a3.5 3.5 0 0 0 4.69 3.45c4.81-1.73 11-3.26 15.88-3.26 5.4 0 7.68 2.34 8 7v4h-16c-15.88 0-23.36 8.93-23.36 19.83 0 6 2 11.55 5.64 15.35 4.07 4.07 9.72 6 17.46 6 7.53 0 14-4.76 16.42-6.8a.62.62 0 0 1 1 .48v1.87a3.1 3.1 0 0 0 3.1 3.11h11a3.28 3.28 0 0 0 3.28-3.29v-41.6c-.06-15.21-9.32-20.88-25.12-20.88zm6.66 41.37c0 4.2-.65 7-2.49 8.67-3 2.89-6 3.28-10.77 3.28-6.69 0-9.84-3.15-9.84-7.88s3.41-7.74 9.58-7.74h13.52zM365.88 279.69q-4.49-4.72-14.4-7.43c-4.88-1.26-8.73-2.38-11.58-3.37s-4.28-2.52-4.28-4.59a3.89 3.89 0 0 1 2.07-3.44c1.38-.86 3.59-1.28 6.62-1.28a53 53 0 0 1 15.76 3.21 3.51 3.51 0 0 0 4.72-3.4l-.36-7.65a4.45 4.45 0 0 0-3.15-4c-1.17-.36-2.36-.71-3.61-1a51.34 51.34 0 0 0-14.47-1.82h-.52a39.68 39.68 0 0 0-10.31 1.4 27.62 27.62 0 0 0-8.68 4.05 20.14 20.14 0 0 0-5.72 6.21 17 17 0 0 0-.34 15.59 17.64 17.64 0 0 0 4.55 5.53 26.7 26.7 0 0 0 6.47 3.85A51.74 51.74 0 0 0 336 284q4.54 1.22 7.51 2.15a29.23 29.23 0 0 1 4.62 1.83 5.63 5.63 0 0 1 2.27 1.89 4.43 4.43 0 0 1-2.27 6.41 21.16 21.16 0 0 1-7.31 1.08h-3.4l-1-.08-.82-.11c-.31 0-.61-.08-.9-.14-4.27-.78-9-2.71-12.84-4.07a3.6 3.6 0 0 0-4.86 3.44l.37 7.86a4.83 4.83 0 0 0 3.23 4.14c1.26.5 2.31 1 3.71 1.5l1 .28c.87.26 1.75.49 2.65.7a45.1 45.1 0 0 0 11.25 1.54c.82 0 1.66.05 2.5.05a46 46 0 0 0 10.55-1.21 31.27 31.27 0 0 0 9.23-3.71 20 20 0 0 0 6.48-6.28 16.42 16.42 0 0 0 2.41-9q-.02-7.86-4.5-12.58zM441.29 283.92V299a14.16 14.16 0 0 1-14.15 14.15 4.79 4.79 0 0 1-4.79-4.79V251c0-18.84 14.86-34.69 33.69-35.06a34.37 34.37 0 0 1 4.3 68.55.76.76 0 0 0-.68.75v4.34a1.52 1.52 0 0 1-2.63 1.17l-5.54-6.29-6.13-6.93a3.64 3.64 0 0 1 0-4.65l6.13-6.94 5.54-6.28a1.51 1.51 0 0 1 2.63 1.16v4.28a.79.79 0 0 0 1 .75A15.44 15.44 0 0 0 456 235.5c-8.33.37-14.74 7.57-14.74 15.91v32.51z" transform="translate(-188.9 -215.94)"></path></svg>